<svg width="557" height="168" viewBox="0 0 557 168" fill="none" xmlns="http://www.w3.org/2000/svg">
<path fill-rule="evenodd" clip-rule="evenodd" d="M55.3689 3.657C47.4072 -0.0868006 38.4414 -0.987579 29.9163 1.10005C21.3913 3.18768 13.8043 8.14187 8.37752 15.1634C2.95077 22.1849 -2.10636e-06 30.865 0 39.8049C2.10636e-06 48.7449 2.95078 57.4249 8.37753 64.4464C13.8043 71.468 21.3913 76.4222 29.9163 78.5098C38.4414 80.5974 47.4073 79.6966 55.3689 75.9528C63.3305 72.2091 69.8238 65.8407 73.8031 57.8746L73.8885 57.7036L60.3954 50.691L60.3072 50.8675C57.8712 55.7441 53.8969 59.6413 49.0256 61.932C44.1543 64.2226 38.6691 64.7736 33.4536 63.4964C28.2381 62.2192 23.5952 59.188 20.2736 54.8903C16.952 50.5925 15.1452 45.2786 15.1452 39.8049C15.1452 34.3312 16.952 29.0173 20.2736 24.7196C23.5952 20.4218 28.2381 17.3906 33.4536 16.1134C38.6691 14.8363 44.1543 15.3872 49.0256 17.6779C53.8969 19.9685 57.8712 23.8657 60.3072 28.7423L60.3954 28.9188L73.8885 21.9062L73.8031 21.7352C69.8238 13.7692 63.3305 7.40076 55.3689 3.657ZM160.6 1.56104H212.89V16.484H175.82V31.3913H208.21V46.3143H175.82V63.5162H212.89V78.4392H160.6V1.56104ZM225.78 1.56104H244.168L268.512 60.1433L292.856 1.56104H311.243V78.4392H295.891V31.6894L276.444 78.4392H260.58L241.238 32.0106L241.133 78.4392H225.78V1.56104ZM469.51 1.56104H484.729V31.3913H520.779V1.56104H535.999V78.4392H520.779V46.3143H484.729V78.4392H469.51V1.56104ZM459.062 1.56104H392.33V16.484H418.086V78.4392H433.306V16.484H459.062V1.56104ZM350.437 1.56104H368.442L399.054 78.4392H382.176L375.037 60.3542C374.998 60.368 374.954 60.3839 374.903 60.4017C374.697 60.4736 374.395 60.5761 374.004 60.6989C373.223 60.9446 372.091 61.2718 370.684 61.599C367.871 62.2531 363.955 62.9074 359.546 62.9074C355.138 62.9074 351.169 62.2531 348.302 61.5991C346.869 61.2721 345.71 60.9449 344.91 60.6993C344.509 60.5765 344.198 60.4741 343.987 60.4022L343.887 60.3679L343.844 60.3529L336.811 78.4392H320.04L350.437 1.56104ZM349.75 45.3629L349.763 45.3688C349.882 45.4211 350.059 45.4962 350.291 45.5866C350.755 45.7674 351.437 46.0092 352.308 46.2511C354.049 46.7351 356.543 47.2196 359.546 47.2196C362.55 47.2196 365.017 46.7352 366.731 46.2513C367.588 46.0094 368.257 45.7678 368.71 45.5871C368.937 45.4968 369.11 45.4217 369.226 45.3695L369.236 45.3648L359.441 20.5381L349.75 45.3629ZM84.5901 1.56104H99.8096V47.805C99.8096 53.165 101.263 57.404 104 60.3019C106.735 63.1981 110.776 64.7806 116.005 64.7806C121.233 64.7806 125.274 63.1981 128.009 60.3019C130.746 57.404 132.2 53.165 132.2 47.805V1.56104H147.419V47.805C147.419 57.5999 144.48 65.6526 139.072 71.2575C133.663 76.8634 125.803 80 116.005 80C106.206 80 98.3466 76.8634 92.9375 71.2575C87.5292 65.6526 84.5901 57.5999 84.5901 47.805V1.56104Z" fill="currentColor"/>
<path d="M3 154.256V114H8.92922L23.8386 149.022L38.748 114H44.6773V154.256H40.072V121.994L26.3139 154.256H21.3633L7.72035 122.166L7.60522 154.256H3Z" fill="currentColor"/>
<path d="M51.9576 146.895C51.9576 141.661 55.6993 138.786 62.4344 137.751L69.8028 136.601V135.278C69.8028 132.23 67.5577 129.815 63.1828 129.815C58.8654 129.815 56.5052 132.288 56.5052 136.141C56.5052 136.428 56.5052 136.658 56.5628 136.946L52.1302 136.601V135.968C52.1302 129.24 57.196 125.789 63.0101 125.789C70.3784 125.789 74.2353 129.642 74.2353 135.623V154.256H69.8028V150.633C68.3061 153.105 65.6005 155.061 61.5134 155.061C54.7783 155.061 51.9576 150.805 51.9576 146.895ZM56.4476 146.492C56.4476 149.195 58.7503 150.863 62.3769 150.863C66.6943 150.863 69.8028 147.585 69.8028 142.466V140.454L62.7223 141.661C59.441 142.236 56.4476 143.387 56.4476 146.492Z" fill="currentColor"/>
<path d="M82.1407 154.256V114H86.746V138.498L98.7195 126.652H104.706L93.0206 138.211L105.397 154.256H99.7557L89.7969 141.431L86.746 144.422V154.256H82.1407Z" fill="currentColor"/>
<path d="M109.466 118.658C109.466 116.818 110.905 115.38 112.747 115.38C114.532 115.38 116.028 116.818 116.028 118.658C116.028 120.441 114.532 121.936 112.747 121.936C110.905 121.936 109.466 120.441 109.466 118.658ZM110.445 154.256V126.652H115.05V154.256H110.445Z" fill="currentColor"/>
<path d="M122.952 154.256V126.652H127.557V130.16C129.514 127.514 132.565 125.789 136.71 125.789C142.754 125.789 146.323 129.815 146.323 136.256V154.256H141.718V137.233C141.718 132.403 139.645 129.987 135.328 129.987C130.665 129.987 127.557 133.61 127.557 139.419V154.256H122.952Z" fill="currentColor"/>
<path d="M152.623 155.981L157.171 155.406C157.171 160.524 160.452 163.859 165.518 163.859C171.101 163.859 174.901 159.949 174.901 153.566V148.562C172.886 151.438 169.72 153.278 165.633 153.278C157.976 153.278 152.623 147.24 152.623 139.649C152.623 132.058 157.976 125.904 165.633 125.904C169.72 125.904 172.886 127.802 174.901 130.677V126.652H179.506V153.393C179.506 161.962 173.807 168 165.46 168C158.034 168 152.623 163.514 152.623 155.981ZM157.228 139.649C157.228 144.939 160.797 148.907 166.093 148.907C171.332 148.907 174.901 144.997 174.901 139.649C174.901 134.3 171.332 130.275 166.093 130.275C160.855 130.275 157.228 134.3 157.228 139.649Z" fill="currentColor"/>
<path d="M202.813 154.313V114H207.36V133.38L228.026 114H234.359L216.11 131.195L234.531 154.313H228.66L212.772 134.415L207.36 139.476V154.313H202.813Z" fill="currentColor"/>
<path d="M238.561 118.658C238.561 116.818 240 115.38 241.842 115.38C243.627 115.38 245.123 116.818 245.123 118.658C245.123 120.441 243.627 121.936 241.842 121.936C240 121.936 238.561 120.441 238.561 118.658ZM239.54 154.256V126.652H244.145V154.256H239.54Z" fill="currentColor"/>
<path d="M250.435 140.511C250.435 132.288 255.788 125.789 263.502 125.789C268.05 125.789 271.446 127.802 273.634 130.907V114H278.239V154.256H273.634V150.058C271.446 153.163 268.05 155.118 263.502 155.118C255.788 155.118 250.435 148.735 250.435 140.511ZM255.04 140.511C255.04 146.377 258.839 150.69 264.308 150.69C269.777 150.69 273.634 146.435 273.634 140.511C273.634 134.588 269.777 130.217 264.308 130.217C258.897 130.217 255.04 134.588 255.04 140.511Z" fill="currentColor"/>
<path d="M284.068 144.307L288.616 143.444C289.134 147.757 292.012 150.863 296.56 150.863C300.647 150.863 303.065 148.965 303.065 146.319C303.065 144.192 301.453 142.524 295.927 141.949C288.961 141.259 286.025 138.096 286.025 133.495C286.025 129.01 290.343 125.789 296.042 125.789C300.992 125.789 305.367 129.01 306.576 134.3L302.374 135.566C301.741 132 299.15 130.102 296.042 130.102C292.933 130.102 290.688 131.482 290.688 133.495C290.688 135.45 291.955 137.003 296.618 137.463C304.331 138.211 307.67 141.316 307.67 146.204C307.67 151.495 303.122 155.118 296.56 155.118C289.825 155.118 285.104 150.633 284.068 144.307Z" fill="currentColor"/>
<path d="M328.872 154.256V114H334.801L349.711 149.022L364.62 114H370.549V154.256H365.944V121.994L352.186 154.256H347.236L333.593 122.166L333.477 154.256H328.872Z" fill="currentColor"/>
<path d="M377.83 146.895C377.83 141.661 381.572 138.786 388.307 137.751L395.675 136.601V135.278C395.675 132.23 393.43 129.815 389.055 129.815C384.738 129.815 382.377 132.288 382.377 136.141C382.377 136.428 382.377 136.658 382.435 136.946L378.002 136.601V135.968C378.002 129.24 383.068 125.789 388.882 125.789C396.251 125.789 400.108 129.642 400.108 135.623V154.256H395.675V150.633C394.178 153.105 391.473 155.061 387.386 155.061C380.65 155.061 377.83 150.805 377.83 146.895ZM382.32 146.492C382.32 149.195 384.622 150.863 388.249 150.863C392.566 150.863 395.675 147.585 395.675 142.466V140.454L388.594 141.661C385.313 142.236 382.32 143.387 382.32 146.492Z" fill="currentColor"/>
<path d="M405.365 130.792V126.652H410.661V118.256H415.266V126.652H429.715V130.792H415.266V144.824C415.266 148.792 417.396 150.863 420.85 150.863C424.304 150.863 426.376 148.102 426.146 143.904L430.636 144.307C430.982 150.978 426.607 155.118 421.023 155.118C414.633 155.118 410.661 151.208 410.661 144.709V130.792H405.365Z" fill="currentColor"/>
<path d="M436.485 154.256V114H441.091V130.16C443.048 127.514 446.099 125.789 450.243 125.789C456.288 125.789 459.857 129.815 459.857 136.256V154.256H455.252V137.233C455.252 132.403 453.179 129.987 448.862 129.987C444.199 129.987 441.091 133.61 441.091 139.419V154.256H436.485Z" fill="currentColor"/>
<path d="M468.172 154.256V114H495.285V118.428H472.777V132.69H492.925V137.061H472.777V154.256H468.172Z" fill="currentColor"/>
<path d="M499.872 118.658C499.872 116.818 501.311 115.38 503.153 115.38C504.938 115.38 506.435 116.818 506.435 118.658C506.435 120.441 504.938 121.936 503.153 121.936C501.311 121.936 499.872 120.441 499.872 118.658ZM500.851 154.256V126.652H505.456V154.256H500.851Z" fill="currentColor"/>
<path d="M510.71 130.792V126.652H516.006V118.256H520.611V126.652H535.06V130.792H520.611V144.824C520.611 148.792 522.741 150.863 526.195 150.863C529.649 150.863 531.721 148.102 531.491 143.904L535.981 144.307C536.326 150.978 531.951 155.118 526.367 155.118C519.978 155.118 516.006 151.208 516.006 144.709V130.792H510.71Z" fill="currentColor"/>
<path d="M540.101 115.045V113.674H546.728V115.045H544.134V121.674H542.706V115.045H540.101Z" fill="currentColor"/>
<path d="M547.588 121.674V113.674H549.325L552.033 120.028L554.73 113.674H556.479V121.674H555.05V116.337L552.776 121.674H551.279L549.028 116.394L549.017 121.674H547.588Z" fill="currentColor"/>
</svg>
