<svg width="536" height="80" viewBox="0 0 536 80" fill="none" xmlns="http://www.w3.org/2000/svg">
<path fill-rule="evenodd" clip-rule="evenodd" d="M55.3689 3.657C47.4072 -0.0868006 38.4414 -0.987579 29.9163 1.10005C21.3913 3.18768 13.8043 8.14187 8.37752 15.1634C2.95077 22.1849 -2.10636e-06 30.865 0 39.8049C2.10636e-06 48.7449 2.95078 57.4249 8.37753 64.4464C13.8043 71.468 21.3913 76.4222 29.9163 78.5098C38.4414 80.5974 47.4073 79.6966 55.3689 75.9528C63.3305 72.2091 69.8238 65.8407 73.8031 57.8746L73.8885 57.7036L60.3954 50.691L60.3072 50.8675C57.8712 55.7441 53.8969 59.6413 49.0256 61.932C44.1543 64.2226 38.6691 64.7736 33.4536 63.4964C28.2381 62.2192 23.5952 59.188 20.2736 54.8903C16.952 50.5925 15.1452 45.2786 15.1452 39.8049C15.1452 34.3312 16.952 29.0173 20.2736 24.7196C23.5952 20.4218 28.2381 17.3906 33.4536 16.1134C38.6691 14.8363 44.1543 15.3872 49.0256 17.6779C53.8969 19.9685 57.8712 23.8657 60.3072 28.7423L60.3954 28.9188L73.8885 21.9062L73.8031 21.7352C69.8238 13.7692 63.3305 7.40076 55.3689 3.657ZM160.6 1.56104H212.89V16.484H175.82V31.3913H208.21V46.3143H175.82V63.5162H212.89V78.4392H160.6V1.56104ZM225.78 1.56104H244.168L268.512 60.1433L292.856 1.56104H311.243V78.4392H295.891V31.6894L276.444 78.4392H260.58L241.238 32.0106L241.133 78.4392H225.78V1.56104ZM469.51 1.56104H484.729V31.3913H520.779V1.56104H535.999V78.4392H520.779V46.3143H484.729V78.4392H469.51V1.56104ZM459.062 1.56104H392.33V16.484H418.086V78.4392H433.306V16.484H459.062V1.56104ZM350.437 1.56104H368.442L399.054 78.4392H382.176L375.037 60.3542C374.998 60.368 374.954 60.3839 374.903 60.4017C374.697 60.4736 374.395 60.5761 374.004 60.6989C373.223 60.9446 372.091 61.2718 370.684 61.599C367.871 62.2531 363.955 62.9074 359.546 62.9074C355.138 62.9074 351.169 62.2531 348.302 61.5991C346.869 61.2721 345.71 60.9449 344.91 60.6993C344.509 60.5765 344.198 60.4741 343.987 60.4022L343.887 60.3679L343.844 60.3529L336.811 78.4392H320.04L350.437 1.56104ZM349.75 45.3629L349.763 45.3688C349.882 45.4211 350.059 45.4962 350.291 45.5866C350.755 45.7674 351.437 46.0092 352.308 46.2511C354.049 46.7351 356.543 47.2196 359.546 47.2196C362.55 47.2196 365.017 46.7352 366.731 46.2513C367.588 46.0094 368.257 45.7678 368.71 45.5871C368.937 45.4968 369.11 45.4217 369.226 45.3695L369.236 45.3648L359.441 20.5381L349.75 45.3629ZM84.5901 1.56104H99.8096V47.805C99.8096 53.165 101.263 57.404 104 60.3019C106.735 63.1981 110.776 64.7806 116.005 64.7806C121.233 64.7806 125.274 63.1981 128.009 60.3019C130.746 57.404 132.2 53.165 132.2 47.805V1.56104H147.419V47.805C147.419 57.5999 144.48 65.6526 139.072 71.2575C133.663 76.8634 125.803 80 116.005 80C106.206 80 98.3466 76.8634 92.9375 71.2575C87.5292 65.6526 84.5901 57.5999 84.5901 47.805V1.56104Z" fill="currentColor"/>
</svg>
